<svg xmlns="http://www.w3.org/2000/svg" width="20.848" height="17.115" viewBox="0 0 20.848 17.115"><defs><style>.a,.c,.e{fill:none;}.a,.e{stroke:#fff;}.a{stroke-linecap:round;}.b{fill:#fff;}.c{stroke:#707070;}.d{fill:#3d3d3d;}</style></defs><g transform="translate(-1472.391 -172.766)"><path class="a" d="M1473.725,174.358s2.975-.85,7.094,3.891"/><path class="b" d="M1480.79,178.309a3.1,3.1,0,0,0,2.489-.77c.793-.978-.267-1.948.682-3.141a3.242,3.242,0,0,1,3.112-1.63,5.3,5.3,0,0,1,4.386,3.882c.082.34,2.163,1.067,1.719,1.422s-1.559.948-1.719,1.66c-.546,2.556-1.844,6.454-5.571,8.594a15.369,15.369,0,0,1-9.038,1.422l-1.185-.563-3.171-.415c-.707-.463,2.4-.864,5.393-2.015.268-.1.561-.1,1.126-.326,1.076-.431-.845-.16-3.112-1.452a4.09,4.09,0,0,1-1.245-1.452c-.5-.682-.537-1.913-1.1-2.43-.037-.034,1.813-.491,1.541-.741-.247-.225-1.441-.431-1.867-.889-.095-.1,1.407-.657,1.114-.984-.156-.173-.495-.567-.788-.942-.421-.54-.252-3.39-.326-3.378"/><path class="c" d="M1480.849,178.813"/><circle class="d" cx="0.5" cy="0.5" r="0.5" transform="translate(1489 176)"/><path class="e" d="M3464.223,174.714l5.647,2.919" transform="translate(-1990)"/></g></svg>