<svg xmlns="http://www.w3.org/2000/svg" xmlns:xlink="http://www.w3.org/1999/xlink" width="13.173" height="10.736" viewBox="0 0 13.173 10.736"><defs><style>.a{fill:#dadada;stroke:#dadada;}.b{clip-path:url(#a);}.c{fill:none;stroke:#707070;stroke-linecap:square;}</style><clipPath id="a"><path class="a" d="M787.518,2451.982v-4.524s-1.389.014-2,0,5.857-5.085,5.857-5.085,5.208,3.814,6.242,5.085c0,0,.046.014.011.013s-2.115-.013-2.115-.013v4.524h-2.858v-3.507h-2.192v3.507Z" transform="translate(-20)"/></clipPath></defs><g transform="translate(-764.976 -2441.745)"><path class="a" d="M787.518,2451.982v-4.524s-1.389.014-2,0,5.857-5.085,5.857-5.085,5.208,3.814,6.242,5.085c0,0,.046.014.011.013s-2.115-.013-2.115-.013v4.524h-2.858v-3.507h-2.192v3.507Z" transform="translate(-20)"/><path class="a" d="M794.5,2444.6v-2.28h1.549v3.443" transform="translate(-20 0.502)"/><g class="b"><path class="c" d="M766.441,2448.021l5-4.243,5.033,4.243"/></g></g></svg>