<svg xmlns="http://www.w3.org/2000/svg" width="54" height="54" viewBox="0 0 54 54"><defs><style>.a{fill:#4a4a4a;}.b{fill:none;stroke:#fff;stroke-linecap:round;stroke-width:1.5px;}.c{fill:#fff;font-size:10px;font-family:NotoSansCJKkr-Bold, Noto Sans CJK KR;font-weight:700;letter-spacing:0.27em;}</style></defs><g transform="translate(-405 -2287)"><circle class="a" cx="27" cy="27" r="27" transform="translate(405 2287)"/><path class="b" d="M446.784,55.419V35.356s0-1.982-2.823-3.965" transform="translate(-14.433 2264.33)"/><path class="b" d="M454.908,43.885s-6.127-.961-6.367,16.339" transform="translate(-16.129 2259.706)"/><path class="b" d="M435.469,43.022s8.71-1.2,8.289,16.819" transform="translate(-11.287 2260.028)"/><path class="b" d="M437.591,47.165s-13.4,1.742-6.007-6.127c2.6-1.927,6.238-1.356,7.088-1.382" transform="translate(-9.024 2261.291)"/><path class="b" d="M453.6,46.586s3.9,1,6.247-.36c2.534-1.466,2.921-5.544-6.247-7.869" transform="translate(-18.003 2261.75)"/><path class="b" d="M436.327,33.458a18.3,18.3,0,0,1,2.644-3.4,7.524,7.524,0,0,1,3.183-2.01c3.511-.94,7.466,2.231,3.064,8.77" transform="translate(-11.605 2265.628)"/><path class="b" d="M422.206,58.68l16.639,4.986" transform="translate(-6.374 2254.222)"/><path class="b" d="M464.713,59.157,448.254,63.9" transform="translate(-16.023 2254.045)"/><path class="b" d="M419.535,65.231l18.261.781,18.621-1.322" transform="translate(-5.384 2251.995)"/><path class="b" d="M418.58,71.37h16.579" transform="translate(-5.031 2249.521)"/><path class="b" d="M468.187,71.37H451.307" transform="translate(-17.154 2249.521)"/><path class="b" d="M419.535,67.648,438.1,69.39l18.261-1.261" transform="translate(-5.384 2250.899)"/><path class="b" d="M420.2,66.885l17.9.781,18.381-.781" transform="translate(-5.632 2251.182)"/><text class="c" transform="translate(415 2330)"><tspan x="0" y="0">ASLE</tspan></text></g></svg>