<svg xmlns="http://www.w3.org/2000/svg" width="15.757" height="15.949" viewBox="0 0 15.757 15.949"><defs><style>.a,.c{fill:#fff;}.b,.c{stroke:none;}</style></defs><g class="a" transform="translate(-437.253 -169.007)"><path class="b" d="M 450.1205444335938 184.4559020996094 L 447.2680969238281 184.4559020996094 L 447.2680969238281 180.1788635253906 L 447.2680969238281 179.6788635253906 L 446.7680969238281 179.6788635253906 L 443.3779296875 179.6788635253906 L 442.8779296875 179.6788635253906 L 442.8779296875 180.1788635253906 L 442.8779296875 184.4559020996094 L 440.1025390625 184.4559020996094 L 440.1025390625 175.7100372314453 L 440.1025390625 175.2100372314453 L 439.6025390625 175.2100372314453 L 437.7525634765625 175.2100372314453 L 437.7525634765625 175.0251312255859 L 444.2858581542969 169.7764434814453 L 445.4632873535156 169.7764434814453 L 448.0572204589844 172.0415802001953 L 448.8861083984375 172.765380859375 L 448.8861083984375 171.6649627685547 L 448.8861083984375 169.5067749023438 L 450.1205444335938 169.5067749023438 L 450.1205444335938 173.1288909912109 L 450.1205444335938 173.3905944824219 L 450.3356018066406 173.5397491455078 L 452.5090637207031 175.0471649169922 L 452.5090637207031 175.2100372314453 L 450.6205444335938 175.2100372314453 L 450.1205444335938 175.2100372314453 L 450.1205444335938 175.7100372314453 L 450.1205444335938 184.4559020996094 Z"/><path class="c" d="M 449.3861083984375 170.0067749023438 L 449.3861083984375 171.6649627685547 L 449.3861083984375 173.8658142089844 L 447.7283630371094 172.4181823730469 L 445.2757263183594 170.2764434814453 L 444.4618225097656 170.2764434814453 L 438.943115234375 174.7100372314453 L 439.6025390625 174.7100372314453 L 440.6025390625 174.7100372314453 L 440.6025390625 175.7100372314453 L 440.6025390625 183.9559020996094 L 442.3779296875 183.9559020996094 L 442.3779296875 180.1788635253906 L 442.3779296875 179.1788635253906 L 443.3779296875 179.1788635253906 L 446.7680969238281 179.1788635253906 L 447.7680969238281 179.1788635253906 L 447.7680969238281 180.1788635253906 L 447.7680969238281 183.9559020996094 L 449.6205444335938 183.9559020996094 L 449.6205444335938 175.7100372314453 L 449.6205444335938 174.7100372314453 L 450.6205444335938 174.7100372314453 L 451.1456604003906 174.7100372314453 L 450.0506591796875 173.9505920410156 L 449.6205444335938 173.6523132324219 L 449.6205444335938 173.1288909912109 L 449.6205444335938 170.0067749023438 L 449.3861083984375 170.0067749023438 M 448.3861083984375 169.0067749023438 L 450.6205444335938 169.0067749023438 L 450.6205444335938 173.1288909912109 L 453.0090637207031 174.7854461669922 L 453.0090637207031 175.7100372314453 L 450.6205444335938 175.7100372314453 L 450.6205444335938 184.9559020996094 L 446.7680969238281 184.9559020996094 L 446.7680969238281 180.1788635253906 L 443.3779296875 180.1788635253906 L 443.3779296875 184.9559020996094 L 439.6025390625 184.9559020996094 L 439.6025390625 175.7100372314453 L 437.2525634765625 175.7100372314453 L 437.2525634765625 174.7854461669922 L 444.1098937988281 169.2764434814453 L 445.65087890625 169.2764434814453 L 448.3861083984375 171.6649627685547 L 448.3861083984375 169.0067749023438 Z"/></g></svg>