<svg xmlns="http://www.w3.org/2000/svg" width="15.204" height="13.07" viewBox="0 0 15.204 13.07">
  <g id="icon-chat" transform="translate(-967 -1091)">
    <ellipse id="타원_6" data-name="타원 6" cx="6" cy="4.5" rx="6" ry="4.5" transform="translate(967 1091)" fill="#ccc"/>
    <path id="패스_28" data-name="패스 28" d="M970.268,1097.787c-1.162,3.16-3.247,2.764-2.212,2.922s5.7-1.21,5.7-1.21" fill="#ccc" stroke="#ccc" stroke-linecap="round" stroke-width="0.5"/>
    <path id="패스_29" data-name="패스 29" d="M979.251,1094.589s-.182-.758-.181-.755c-.035-.137.028.952-.162,2.423a5.136,5.136,0,0,1-1.415,2.451,4.9,4.9,0,0,1-2.14,1.111c-1.273.353-2.837.632-2.019.973,0,0,.693.153,1.933.346.853.127,1-.128,1.642-.128a12.279,12.279,0,0,1,2.8,1.143,6.14,6.14,0,0,0-1.212-1.571c-.184-.156,1.242-.714,1.646-1.651a3.511,3.511,0,0,0,.216-3.24C978.573,1092.092,979.421,1095.047,979.251,1094.589Z" transform="translate(141.617 -110.007) rotate(7)" fill="#ccc" stroke="#ccc" stroke-linecap="round" stroke-width="1"/>
  </g>
</svg>
