<svg xmlns="http://www.w3.org/2000/svg" width="86" height="86" viewBox="0 0 86 86"><defs><style>.a{fill:#4a4a4a;}.b{fill:none;stroke:#fff;stroke-linecap:round;stroke-width:1.5px;}.c{fill:#fff;font-size:17px;font-family:NotoSansCJKkr-Bold, Noto Sans CJK KR;font-weight:700;letter-spacing:0.27em;}</style></defs><g transform="translate(-405 -18)"><circle class="a" cx="43" cy="43" r="43" transform="translate(405 18)"/><path class="b" d="M448.445,69.557V37.688s0-3.149-4.484-6.3"/><path class="b" d="M458.654,43.89s-9.732-1.527-10.114,25.953"/><path class="b" d="M435.469,43.032s13.835-1.908,13.167,26.716"/><path class="b" d="M442.434,51.619s-21.277,2.767-9.541-9.732c4.128-3.061,9.909-2.154,11.259-2.195"/><path class="b" d="M453.6,51.428s6.191,1.594,9.923-.572c4.025-2.329,4.64-8.806-9.923-12.5"/><path class="b" d="M436.327,36.734a29.068,29.068,0,0,1,4.2-5.394,11.951,11.951,0,0,1,5.056-3.193c5.578-1.494,11.86,3.544,4.866,13.93"/><path class="b" d="M422.206,58.68l26.43,7.919"/><path class="b" d="M474.4,59.157l-26.143,7.538"/><path class="b" d="M419.535,65.549l29.006,1.24,29.578-2.1"/><path class="b" d="M418.58,71.37h26.334"/><path class="b" d="M478.119,71.37H451.307"/><path class="b" d="M419.535,67.648l29.483,2.767,29.006-2"/><path class="b" d="M420.2,66.885l28.433,1.24,29.2-1.24"/><text class="c" transform="translate(421 87)"><tspan x="0" y="0">ASLE</tspan></text></g></svg>